<!DOCTYPE svg PUBLIC "-//W3C//DTD SVG 1.1//EN" "http://www.w3.org/Graphics/SVG/1.1/DTD/svg11.dtd">
<!-- Uploaded to: SVG Repo, www.svgrepo.com, Transformed by: SVG Repo Mixer Tools -->
<svg height="256px" width="256px" version="1.1" xmlns="http://www.w3.org/2000/svg" xmlns:xlink="http://www.w3.org/1999/xlink" viewBox="-6.4 -6.4 76.80 76.80" xml:space="preserve" fill="#000000" stroke="#000000" stroke-width="0.00064" transform="matrix(1, 0, 0, 1, 0, 0)rotate(0)">
<g id="SVGRepo_bgCarrier" stroke-width="0">
<rect x="-6.4" y="-6.4" width="76.80" height="76.80" rx="38.4" fill="#3dc4e6" strokewidth="0"/>
</g>
<g id="SVGRepo_tracerCarrier" stroke-linecap="round" stroke-linejoin="round"/>
<g id="SVGRepo_iconCarrier"> <style type="text/css"> .st0{fill:#44b2ee;} .st1{opacity:0.2;} .st2{fill:#231F20;} .st3{fill:#ffffff;} .st4{fill:#000000;} </style> <g id="Layer_1"> <g> <circle class="st0" cx="32" cy="32" r="32"/> </g> <g class="st1"> <path class="st2" d="M52,32c0-9.9-9-18-20-18s-20,8.1-20,18c0,9.6,8.3,17.4,18.8,17.9C31.5,53.6,32,56,32,56s5-3,9.6-8.2 C47.8,44.7,52,38.8,52,32z"/> </g> <g> <path class="st3" d="M49,28.8C49,43.8,32,54,32,54s-9.4-42,0-42S49,19.5,49,28.8z"/> </g> <g> <ellipse class="st3" cx="32" cy="30" rx="20" ry="18"/> </g> <g> <circle class="st4" cx="32" cy="30" r="2"/> </g> <g> <circle class="st4" cx="40" cy="30" r="2"/> </g> <g> <circle class="st4" cx="24" cy="30" r="2"/> </g> </g> <g id="Layer_2"> </g> </g>
</svg>